<mxfile host="Electron" agent="Mozilla/5.0 (Windows NT 10.0; Win64; x64) AppleWebKit/537.36 (KHTML, like Gecko) draw.io/24.7.17 Chrome/128.0.6613.36 Electron/32.0.1 Safari/537.36" version="24.7.17">
  <diagram name="Page-1" id="oOQyECgegCbjC6rX9ri6">
    <mxGraphModel dx="745" dy="373" grid="1" gridSize="10" guides="1" tooltips="1" connect="1" arrows="1" fold="1" page="1" pageScale="1" pageWidth="850" pageHeight="1100" math="0" shadow="0">
      <root>
        <mxCell id="0" />
        <mxCell id="1" parent="0" />
        <mxCell id="Xo_48Wn3REnxUdT8pBd--1" value="" style="endArrow=none;html=1;rounded=0;" edge="1" parent="1">
          <mxGeometry width="50" height="50" relative="1" as="geometry">
            <mxPoint x="390" y="200" as="sourcePoint" />
            <mxPoint x="390" y="120" as="targetPoint" />
          </mxGeometry>
        </mxCell>
        <mxCell id="Xo_48Wn3REnxUdT8pBd--2" value="" style="endArrow=none;html=1;rounded=0;" edge="1" parent="1" source="Xo_48Wn3REnxUdT8pBd--5">
          <mxGeometry width="50" height="50" relative="1" as="geometry">
            <mxPoint x="390" y="160" as="sourcePoint" />
            <mxPoint x="500" y="160" as="targetPoint" />
          </mxGeometry>
        </mxCell>
        <mxCell id="Xo_48Wn3REnxUdT8pBd--3" value="&lt;b&gt;&lt;u&gt;17&lt;/u&gt;25&lt;/b&gt;" style="text;html=1;align=center;verticalAlign=middle;whiteSpace=wrap;rounded=0;" vertex="1" parent="1">
          <mxGeometry x="320" y="130" width="60" height="30" as="geometry" />
        </mxCell>
        <mxCell id="Xo_48Wn3REnxUdT8pBd--4" value="10" style="text;html=1;align=center;verticalAlign=middle;whiteSpace=wrap;rounded=0;" vertex="1" parent="1">
          <mxGeometry x="395" y="130" width="60" height="30" as="geometry" />
        </mxCell>
        <mxCell id="Xo_48Wn3REnxUdT8pBd--6" value="" style="endArrow=none;html=1;rounded=0;" edge="1" parent="1" target="Xo_48Wn3REnxUdT8pBd--5">
          <mxGeometry width="50" height="50" relative="1" as="geometry">
            <mxPoint x="390" y="160" as="sourcePoint" />
            <mxPoint x="500" y="160" as="targetPoint" />
          </mxGeometry>
        </mxCell>
        <mxCell id="Xo_48Wn3REnxUdT8pBd--5" value="&lt;font color=&quot;#008f00&quot;&gt;&lt;b&gt;172&lt;/b&gt;&lt;/font&gt;" style="text;html=1;align=center;verticalAlign=middle;whiteSpace=wrap;rounded=0;" vertex="1" parent="1">
          <mxGeometry x="390" y="160" width="110" height="30" as="geometry" />
        </mxCell>
        <mxCell id="Xo_48Wn3REnxUdT8pBd--7" value="" style="endArrow=none;html=1;rounded=0;exitX=0;exitY=0;exitDx=0;exitDy=0;entryX=1;entryY=0;entryDx=0;entryDy=0;" edge="1" parent="1" source="Xo_48Wn3REnxUdT8pBd--5" target="Xo_48Wn3REnxUdT8pBd--5">
          <mxGeometry width="50" height="50" relative="1" as="geometry">
            <mxPoint x="530" y="240" as="sourcePoint" />
            <mxPoint x="580" y="190" as="targetPoint" />
          </mxGeometry>
        </mxCell>
        <mxCell id="Xo_48Wn3REnxUdT8pBd--8" value="10" style="text;html=1;align=center;verticalAlign=middle;whiteSpace=wrap;rounded=0;" vertex="1" parent="1">
          <mxGeometry x="311" y="140" width="60" height="35" as="geometry" />
        </mxCell>
        <mxCell id="Xo_48Wn3REnxUdT8pBd--9" value="" style="endArrow=none;html=1;rounded=0;" edge="1" parent="1">
          <mxGeometry width="50" height="50" relative="1" as="geometry">
            <mxPoint x="330" y="170" as="sourcePoint" />
            <mxPoint x="380" y="170" as="targetPoint" />
          </mxGeometry>
        </mxCell>
        <mxCell id="Xo_48Wn3REnxUdT8pBd--10" value="-" style="text;html=1;align=center;verticalAlign=middle;whiteSpace=wrap;rounded=0;" vertex="1" parent="1">
          <mxGeometry x="300" y="140" width="40" height="30" as="geometry" />
        </mxCell>
        <mxCell id="Xo_48Wn3REnxUdT8pBd--14" value="7" style="text;html=1;align=center;verticalAlign=middle;whiteSpace=wrap;rounded=0;" vertex="1" parent="1">
          <mxGeometry x="325.5" y="175" width="24.5" height="30" as="geometry" />
        </mxCell>
        <mxCell id="Xo_48Wn3REnxUdT8pBd--17" value="&lt;b&gt;2&lt;/b&gt;" style="text;html=1;align=center;verticalAlign=middle;whiteSpace=wrap;rounded=0;" vertex="1" parent="1">
          <mxGeometry x="337.75" y="175" width="24.5" height="30" as="geometry" />
        </mxCell>
        <mxCell id="Xo_48Wn3REnxUdT8pBd--18" value="70" style="text;html=1;align=center;verticalAlign=middle;whiteSpace=wrap;rounded=0;" vertex="1" parent="1">
          <mxGeometry x="311" y="190" width="60" height="30" as="geometry" />
        </mxCell>
        <mxCell id="Xo_48Wn3REnxUdT8pBd--19" value="" style="endArrow=none;html=1;rounded=0;" edge="1" parent="1">
          <mxGeometry width="50" height="50" relative="1" as="geometry">
            <mxPoint x="325.5" y="219" as="sourcePoint" />
            <mxPoint x="375.5" y="219" as="targetPoint" />
          </mxGeometry>
        </mxCell>
        <mxCell id="Xo_48Wn3REnxUdT8pBd--20" value="2" style="text;html=1;align=center;verticalAlign=middle;whiteSpace=wrap;rounded=0;" vertex="1" parent="1">
          <mxGeometry x="328.75" y="220" width="24.5" height="30" as="geometry" />
        </mxCell>
        <mxCell id="Xo_48Wn3REnxUdT8pBd--22" value="&lt;b&gt;5&lt;/b&gt;" style="text;html=1;align=center;verticalAlign=middle;whiteSpace=wrap;rounded=0;" vertex="1" parent="1">
          <mxGeometry x="337.75" y="220" width="24.5" height="30" as="geometry" />
        </mxCell>
        <mxCell id="Xo_48Wn3REnxUdT8pBd--23" value="20" style="text;html=1;align=center;verticalAlign=middle;whiteSpace=wrap;rounded=0;" vertex="1" parent="1">
          <mxGeometry x="320" y="240" width="60" height="30" as="geometry" />
        </mxCell>
        <mxCell id="Xo_48Wn3REnxUdT8pBd--24" value="" style="endArrow=none;html=1;rounded=0;" edge="1" parent="1">
          <mxGeometry width="50" height="50" relative="1" as="geometry">
            <mxPoint x="320" y="269" as="sourcePoint" />
            <mxPoint x="370" y="269" as="targetPoint" />
          </mxGeometry>
        </mxCell>
        <mxCell id="Xo_48Wn3REnxUdT8pBd--25" value="&lt;b&gt;&lt;font color=&quot;#ff2d0d&quot;&gt;5&lt;/font&gt;&lt;/b&gt;" style="text;html=1;align=center;verticalAlign=middle;whiteSpace=wrap;rounded=0;" vertex="1" parent="1">
          <mxGeometry x="340" y="270" width="24.5" height="30" as="geometry" />
        </mxCell>
        <mxCell id="Xo_48Wn3REnxUdT8pBd--26" value="-" style="text;html=1;align=center;verticalAlign=middle;whiteSpace=wrap;rounded=0;" vertex="1" parent="1">
          <mxGeometry x="310" y="180" width="40" height="30" as="geometry" />
        </mxCell>
        <mxCell id="Xo_48Wn3REnxUdT8pBd--27" value="-" style="text;html=1;align=center;verticalAlign=middle;whiteSpace=wrap;rounded=0;" vertex="1" parent="1">
          <mxGeometry x="310" y="230" width="40" height="30" as="geometry" />
        </mxCell>
        <mxCell id="Xo_48Wn3REnxUdT8pBd--28" value="" style="endArrow=classic;html=1;rounded=0;" edge="1" parent="1">
          <mxGeometry width="50" height="50" relative="1" as="geometry">
            <mxPoint x="220" y="300" as="sourcePoint" />
            <mxPoint x="340" y="290" as="targetPoint" />
          </mxGeometry>
        </mxCell>
        <mxCell id="Xo_48Wn3REnxUdT8pBd--29" value="" style="shape=note2;boundedLbl=1;whiteSpace=wrap;html=1;size=25;verticalAlign=top;align=center;fillColor=#fff2cc;strokeColor=#d6b656;" vertex="1" parent="1">
          <mxGeometry x="80" y="280" width="220" height="80" as="geometry" />
        </mxCell>
        <mxCell id="Xo_48Wn3REnxUdT8pBd--30" value="El residuo de dividir entre &#xa;10 es la cifra menos significativa " style="resizeWidth=1;part=1;strokeColor=none;fillColor=none;align=left;spacingLeft=5;" vertex="1" parent="Xo_48Wn3REnxUdT8pBd--29">
          <mxGeometry width="180" height="60" relative="1" as="geometry" />
        </mxCell>
        <mxCell id="Xo_48Wn3REnxUdT8pBd--31" value="La segunda cifra menos significativa.&lt;div&gt;1) Dividir el número entre 10&lt;/div&gt;&lt;div&gt;2) Al cociente se le saca la cifra menos significativa&lt;/div&gt;" style="text;html=1;align=center;verticalAlign=middle;whiteSpace=wrap;rounded=0;" vertex="1" parent="1">
          <mxGeometry x="130" y="390" width="310" height="100" as="geometry" />
        </mxCell>
        <mxCell id="Xo_48Wn3REnxUdT8pBd--32" value="" style="endArrow=classic;html=1;rounded=0;entryX=0.422;entryY=1.009;entryDx=0;entryDy=0;entryPerimeter=0;exitX=0.5;exitY=0;exitDx=0;exitDy=0;" edge="1" parent="1" source="Xo_48Wn3REnxUdT8pBd--34" target="Xo_48Wn3REnxUdT8pBd--5">
          <mxGeometry width="50" height="50" relative="1" as="geometry">
            <mxPoint x="500" y="250" as="sourcePoint" />
            <mxPoint x="520" y="240" as="targetPoint" />
          </mxGeometry>
        </mxCell>
        <mxCell id="Xo_48Wn3REnxUdT8pBd--33" value="" style="shape=note2;boundedLbl=1;whiteSpace=wrap;html=1;size=25;verticalAlign=top;align=center;fillColor=#fff2cc;strokeColor=#d6b656;" vertex="1" parent="1">
          <mxGeometry x="380" y="310" width="220" height="80" as="geometry" />
        </mxCell>
        <mxCell id="Xo_48Wn3REnxUdT8pBd--34" value="Cociente" style="resizeWidth=1;part=1;strokeColor=none;fillColor=none;align=left;spacingLeft=5;" vertex="1" parent="Xo_48Wn3REnxUdT8pBd--33">
          <mxGeometry width="180" height="60" relative="1" as="geometry" />
        </mxCell>
        <mxCell id="Xo_48Wn3REnxUdT8pBd--35" value="&lt;b&gt;&lt;font style=&quot;font-size: 18px;&quot;&gt;Obtener la cifra menos significativa de un entero&lt;/font&gt;&lt;/b&gt;" style="text;html=1;align=center;verticalAlign=middle;whiteSpace=wrap;rounded=0;" vertex="1" parent="1">
          <mxGeometry x="220" y="60" width="620" height="30" as="geometry" />
        </mxCell>
        <mxCell id="Xo_48Wn3REnxUdT8pBd--39" value="" style="endArrow=none;html=1;rounded=0;" edge="1" parent="1">
          <mxGeometry width="50" height="50" relative="1" as="geometry">
            <mxPoint x="510" y="235" as="sourcePoint" />
            <mxPoint x="510" y="155" as="targetPoint" />
          </mxGeometry>
        </mxCell>
        <mxCell id="Xo_48Wn3REnxUdT8pBd--40" value="" style="endArrow=none;html=1;rounded=0;" edge="1" parent="1" source="Xo_48Wn3REnxUdT8pBd--43">
          <mxGeometry width="50" height="50" relative="1" as="geometry">
            <mxPoint x="510" y="195" as="sourcePoint" />
            <mxPoint x="620" y="195" as="targetPoint" />
          </mxGeometry>
        </mxCell>
        <mxCell id="Xo_48Wn3REnxUdT8pBd--41" value="10" style="text;html=1;align=center;verticalAlign=middle;whiteSpace=wrap;rounded=0;" vertex="1" parent="1">
          <mxGeometry x="515" y="165" width="60" height="30" as="geometry" />
        </mxCell>
        <mxCell id="Xo_48Wn3REnxUdT8pBd--42" value="" style="endArrow=none;html=1;rounded=0;" edge="1" parent="1" target="Xo_48Wn3REnxUdT8pBd--43">
          <mxGeometry width="50" height="50" relative="1" as="geometry">
            <mxPoint x="510" y="195" as="sourcePoint" />
            <mxPoint x="620" y="195" as="targetPoint" />
          </mxGeometry>
        </mxCell>
        <mxCell id="Xo_48Wn3REnxUdT8pBd--43" value="&lt;font color=&quot;#008f00&quot;&gt;&lt;b&gt;17&lt;/b&gt;&lt;/font&gt;" style="text;html=1;align=center;verticalAlign=middle;whiteSpace=wrap;rounded=0;" vertex="1" parent="1">
          <mxGeometry x="510" y="195" width="110" height="30" as="geometry" />
        </mxCell>
        <mxCell id="Xo_48Wn3REnxUdT8pBd--44" value="" style="endArrow=none;html=1;rounded=0;exitX=0;exitY=0;exitDx=0;exitDy=0;entryX=1;entryY=0;entryDx=0;entryDy=0;" edge="1" parent="1" source="Xo_48Wn3REnxUdT8pBd--43" target="Xo_48Wn3REnxUdT8pBd--43">
          <mxGeometry width="50" height="50" relative="1" as="geometry">
            <mxPoint x="650" y="275" as="sourcePoint" />
            <mxPoint x="700" y="225" as="targetPoint" />
          </mxGeometry>
        </mxCell>
        <mxCell id="Xo_48Wn3REnxUdT8pBd--46" value="" style="endArrow=classic;html=1;rounded=0;entryX=1;entryY=0.5;entryDx=0;entryDy=0;exitX=0;exitY=0.5;exitDx=0;exitDy=0;" edge="1" parent="1" source="Xo_48Wn3REnxUdT8pBd--48" target="Xo_48Wn3REnxUdT8pBd--43">
          <mxGeometry width="50" height="50" relative="1" as="geometry">
            <mxPoint x="730" y="230" as="sourcePoint" />
            <mxPoint x="770" y="240" as="targetPoint" />
          </mxGeometry>
        </mxCell>
        <mxCell id="Xo_48Wn3REnxUdT8pBd--47" value="" style="shape=note2;boundedLbl=1;whiteSpace=wrap;html=1;size=25;verticalAlign=top;align=center;fillColor=#fff2cc;strokeColor=#d6b656;" vertex="1" parent="1">
          <mxGeometry x="740" y="220" width="220" height="80" as="geometry" />
        </mxCell>
        <mxCell id="Xo_48Wn3REnxUdT8pBd--48" value="Se repite el paso para sacar la tercera &#xa;cifra menos significativa" style="resizeWidth=1;part=1;strokeColor=none;fillColor=none;align=left;spacingLeft=5;" vertex="1" parent="Xo_48Wn3REnxUdT8pBd--47">
          <mxGeometry width="180" height="60" relative="1" as="geometry" />
        </mxCell>
        <mxCell id="Xo_48Wn3REnxUdT8pBd--49" value="" style="endArrow=none;html=1;rounded=0;" edge="1" parent="1">
          <mxGeometry width="50" height="50" relative="1" as="geometry">
            <mxPoint x="620" y="295" as="sourcePoint" />
            <mxPoint x="620" y="215" as="targetPoint" />
          </mxGeometry>
        </mxCell>
        <mxCell id="Xo_48Wn3REnxUdT8pBd--50" value="" style="endArrow=none;html=1;rounded=0;" edge="1" parent="1" source="Xo_48Wn3REnxUdT8pBd--53">
          <mxGeometry width="50" height="50" relative="1" as="geometry">
            <mxPoint x="620" y="255" as="sourcePoint" />
            <mxPoint x="730" y="255" as="targetPoint" />
          </mxGeometry>
        </mxCell>
        <mxCell id="Xo_48Wn3REnxUdT8pBd--51" value="10" style="text;html=1;align=center;verticalAlign=middle;whiteSpace=wrap;rounded=0;" vertex="1" parent="1">
          <mxGeometry x="625" y="225" width="60" height="30" as="geometry" />
        </mxCell>
        <mxCell id="Xo_48Wn3REnxUdT8pBd--52" value="" style="endArrow=none;html=1;rounded=0;" edge="1" parent="1" target="Xo_48Wn3REnxUdT8pBd--53">
          <mxGeometry width="50" height="50" relative="1" as="geometry">
            <mxPoint x="620" y="255" as="sourcePoint" />
            <mxPoint x="730" y="255" as="targetPoint" />
          </mxGeometry>
        </mxCell>
        <mxCell id="Xo_48Wn3REnxUdT8pBd--53" value="&lt;font color=&quot;#008f00&quot;&gt;&lt;b&gt;1&lt;/b&gt;&lt;/font&gt;" style="text;html=1;align=center;verticalAlign=middle;whiteSpace=wrap;rounded=0;" vertex="1" parent="1">
          <mxGeometry x="620" y="255" width="110" height="30" as="geometry" />
        </mxCell>
        <mxCell id="Xo_48Wn3REnxUdT8pBd--54" value="" style="endArrow=none;html=1;rounded=0;exitX=0;exitY=0;exitDx=0;exitDy=0;entryX=1;entryY=0;entryDx=0;entryDy=0;" edge="1" parent="1" source="Xo_48Wn3REnxUdT8pBd--53" target="Xo_48Wn3REnxUdT8pBd--53">
          <mxGeometry width="50" height="50" relative="1" as="geometry">
            <mxPoint x="760" y="335" as="sourcePoint" />
            <mxPoint x="810" y="285" as="targetPoint" />
          </mxGeometry>
        </mxCell>
        <mxCell id="Xo_48Wn3REnxUdT8pBd--56" value="&lt;b&gt;&lt;font style=&quot;font-size: 18px;&quot;&gt;Polinomio con coeficiente y valores enteros&lt;/font&gt;&lt;/b&gt;" style="text;html=1;align=center;verticalAlign=middle;whiteSpace=wrap;rounded=0;" vertex="1" parent="1">
          <mxGeometry x="200" y="590" width="620" height="30" as="geometry" />
        </mxCell>
        <mxCell id="Xo_48Wn3REnxUdT8pBd--57" value="&lt;b&gt;y = a * x&lt;sup&gt;3&lt;/sup&gt; + b * x&lt;sup&gt;2&lt;/sup&gt; + c * x + d&lt;/b&gt;&amp;nbsp; a, b, c, d son enteros conocidos" style="text;html=1;align=center;verticalAlign=middle;whiteSpace=wrap;rounded=0;" vertex="1" parent="1">
          <mxGeometry x="280" y="700" width="560" height="30" as="geometry" />
        </mxCell>
        <mxCell id="Xo_48Wn3REnxUdT8pBd--58" value="&lt;b&gt;y = 5 * x&lt;sup&gt;3&lt;/sup&gt; + 3 * x&lt;sup&gt;2&lt;/sup&gt; +&amp;nbsp; x - 5&lt;/b&gt;&amp;nbsp; &amp;nbsp; Cuánto vale para x = 10" style="text;html=1;align=center;verticalAlign=middle;whiteSpace=wrap;rounded=0;" vertex="1" parent="1">
          <mxGeometry x="280" y="740" width="560" height="30" as="geometry" />
        </mxCell>
      </root>
    </mxGraphModel>
  </diagram>
</mxfile>
